<svg id="svg" version="1.1" xmlns="http://www.w3.org/2000/svg" xmlns:xlink="http://www.w3.org/1999/xlink" width="400" height="400" viewBox="0, 0, 400,400"><g id="svgg"><path id="path0" d="M215.400 16.757 C 214.740 16.925,213.840 17.262,213.400 17.507 C 212.960 17.751,211.348 18.519,209.817 19.214 C 199.892 23.720,193.200 34.361,193.200 45.637 C 193.200 50.296,193.219 50.393,194.365 51.699 C 195.276 52.736,195.443 53.180,195.131 53.737 C 194.912 54.128,194.836 54.717,194.962 55.045 C 195.106 55.420,195.024 55.539,194.744 55.365 C 194.472 55.197,194.375 55.307,194.498 55.644 C 194.609 55.950,194.902 56.155,195.150 56.100 C 195.397 56.045,195.600 56.180,195.600 56.400 C 195.600 56.620,195.966 56.800,196.413 56.800 C 197.481 56.800,197.744 57.590,197.155 59.031 C 196.539 60.538,196.409 61.188,196.737 61.123 C 198.609 60.751,199.498 63.099,198.250 65.118 C 198.110 65.345,198.536 65.770,199.198 66.063 C 200.435 66.611,200.961 68.806,199.997 69.402 C 199.455 69.737,200.539 70.800,201.421 70.800 C 201.981 70.800,202.048 71.029,201.806 72.100 C 201.257 74.523,201.430 75.184,202.663 75.373 C 203.430 75.491,203.522 76.355,202.992 78.448 C 202.760 79.365,202.886 79.552,204.008 79.943 C 205.353 80.412,205.334 80.300,204.555 83.104 C 204.346 83.858,204.518 84.083,205.589 84.456 C 206.669 84.833,206.836 85.055,206.637 85.852 C 206.507 86.373,206.293 87.228,206.163 87.750 C 205.968 88.532,206.145 88.797,207.163 89.248 C 208.494 89.837,208.691 90.344,207.900 91.148 C 207.395 91.662,207.886 92.257,209.761 93.400 C 210.457 93.824,211.128 95.723,221.253 125.940 C 227.871 145.688,227.991 146.166,226.976 148.596 C 226.406 149.960,226.409 150.211,227.009 151.475 C 227.370 152.236,227.735 153.405,227.819 154.072 C 227.904 154.739,228.204 155.564,228.486 155.904 C 228.769 156.244,228.944 156.855,228.875 157.261 C 228.806 157.668,228.935 158.000,229.162 158.000 C 229.389 158.000,229.471 158.270,229.345 158.600 C 229.218 158.930,229.308 159.200,229.545 159.200 C 229.781 159.200,229.872 159.468,229.746 159.797 C 229.617 160.132,229.787 160.497,230.133 160.630 C 230.472 160.760,230.649 161.128,230.526 161.448 C 230.403 161.768,230.640 162.414,231.051 162.884 C 231.463 163.353,231.575 163.606,231.300 163.445 C 231.025 163.284,230.800 163.343,230.800 163.576 C 230.800 163.809,230.991 164.000,231.224 164.000 C 231.457 164.000,231.545 164.165,231.421 164.366 C 231.297 164.567,231.405 164.802,231.661 164.887 C 231.917 164.972,232.110 165.618,232.090 166.321 C 232.070 167.024,232.232 167.600,232.450 167.600 C 232.669 167.600,232.731 167.788,232.589 168.018 C 232.447 168.247,232.655 168.922,233.051 169.518 C 233.447 170.113,233.724 170.899,233.666 171.265 C 233.609 171.630,233.753 172.048,233.987 172.192 C 234.222 172.337,234.305 172.631,234.172 172.845 C 234.039 173.060,234.255 173.722,234.651 174.318 C 235.047 174.913,235.324 175.699,235.266 176.065 C 235.209 176.430,235.353 176.848,235.587 176.992 C 235.822 177.137,235.905 177.431,235.772 177.645 C 235.639 177.860,235.855 178.522,236.251 179.118 C 236.647 179.713,236.924 180.499,236.866 180.865 C 236.809 181.230,236.953 181.648,237.187 181.792 C 237.422 181.937,237.509 182.223,237.383 182.428 C 237.256 182.632,237.373 182.800,237.643 182.800 C 237.913 182.800,238.015 182.918,237.870 183.063 C 237.725 183.208,237.798 183.556,238.031 183.838 C 238.264 184.119,238.514 184.984,238.587 185.761 C 238.659 186.537,239.109 187.806,239.587 188.579 C 240.065 189.353,240.338 190.177,240.194 190.410 C 240.049 190.644,240.149 191.097,240.415 191.418 C 240.680 191.738,240.741 192.006,240.549 192.013 C 240.357 192.020,240.470 192.245,240.800 192.514 C 241.489 193.076,241.737 193.819,241.662 195.100 C 241.633 195.595,241.798 196.000,242.028 196.000 C 242.259 196.000,242.319 196.207,242.162 196.461 C 242.006 196.714,242.196 197.154,242.585 197.438 C 242.973 197.722,243.341 198.550,243.402 199.277 C 243.463 200.005,243.546 200.600,243.587 200.600 C 243.628 200.600,243.728 200.957,243.809 201.393 C 243.890 201.829,244.127 202.242,244.336 202.312 C 244.544 202.381,244.629 202.769,244.523 203.174 C 244.417 203.579,244.518 204.026,244.748 204.168 C 244.977 204.310,245.064 204.690,244.940 205.013 C 244.816 205.336,244.924 205.600,245.181 205.600 C 245.437 205.600,245.545 205.765,245.420 205.968 C 245.295 206.170,245.456 206.599,245.777 206.920 C 246.099 207.242,246.262 207.604,246.141 207.726 C 246.019 207.847,246.062 208.176,246.235 208.456 C 246.408 208.737,246.596 209.398,246.652 209.927 C 246.709 210.455,247.035 211.197,247.378 211.576 C 247.721 211.955,247.882 212.384,247.737 212.530 C 247.591 212.676,247.815 213.187,248.236 213.666 C 248.656 214.145,248.775 214.406,248.500 214.245 C 248.225 214.084,248.000 214.143,248.000 214.376 C 248.000 214.609,248.191 214.800,248.424 214.800 C 248.657 214.800,248.736 214.980,248.600 215.200 C 248.464 215.420,248.554 215.600,248.800 215.600 C 249.046 215.600,249.144 215.768,249.017 215.972 C 248.891 216.177,248.953 216.447,249.156 216.573 C 249.359 216.698,249.431 217.161,249.316 217.600 C 249.201 218.040,249.302 218.400,249.541 218.400 C 249.780 218.400,249.871 218.670,249.745 219.000 C 249.618 219.330,249.724 219.600,249.981 219.600 C 250.237 219.600,250.345 219.765,250.220 219.968 C 250.095 220.170,250.264 220.607,250.595 220.938 C 250.927 221.269,251.096 221.806,250.972 222.130 C 250.847 222.454,250.930 222.833,251.155 222.972 C 251.381 223.112,251.472 223.468,251.358 223.765 C 251.123 224.378,253.088 225.200,254.789 225.200 C 255.890 225.200,263.893 222.682,283.400 216.197 C 289.560 214.150,297.480 211.543,301.000 210.406 C 307.278 208.377,307.644 208.178,309.629 205.732 C 310.189 205.042,309.720 203.613,309.128 204.205 C 309.042 204.291,308.932 203.883,308.883 203.299 C 308.835 202.714,308.630 202.070,308.429 201.869 C 308.227 201.667,308.158 201.254,308.274 200.951 C 308.390 200.648,308.276 200.400,308.019 200.400 C 307.763 200.400,307.681 200.193,307.838 199.939 C 307.994 199.686,307.870 199.281,307.561 199.039 C 307.014 198.611,306.748 197.715,306.750 196.300 C 306.750 195.915,306.571 195.600,306.352 195.600 C 306.132 195.600,306.051 195.440,306.172 195.245 C 306.293 195.050,306.148 194.689,305.852 194.443 C 305.546 194.189,305.395 193.562,305.503 192.997 C 305.618 192.392,305.509 192.000,305.223 192.000 C 304.964 192.000,304.869 191.812,305.011 191.582 C 305.153 191.353,304.943 190.678,304.546 190.082 C 304.148 189.487,303.871 188.838,303.931 188.640 C 303.991 188.442,303.911 187.992,303.754 187.640 C 303.386 186.815,303.311 186.535,303.250 185.776 C 303.223 185.433,303.057 185.241,302.883 185.349 C 302.709 185.456,302.523 184.972,302.470 184.272 C 302.418 183.573,302.210 182.943,302.010 182.874 C 301.809 182.805,301.744 182.490,301.865 182.174 C 301.986 181.858,301.876 181.600,301.619 181.600 C 301.363 181.600,301.255 181.435,301.379 181.234 C 301.503 181.033,301.395 180.798,301.139 180.713 C 300.883 180.628,300.690 179.982,300.710 179.279 C 300.730 178.576,300.568 178.000,300.350 178.000 C 300.131 178.000,300.069 177.812,300.211 177.582 C 300.353 177.353,300.183 176.729,299.834 176.196 C 299.486 175.664,299.200 174.772,299.200 174.214 C 299.200 173.656,299.009 173.200,298.776 173.200 C 298.543 173.200,298.466 173.017,298.605 172.793 C 298.743 172.569,298.514 171.804,298.095 171.093 C 297.676 170.382,297.406 169.485,297.496 169.100 C 297.585 168.715,297.455 168.400,297.206 168.400 C 296.957 168.400,296.875 168.203,297.024 167.962 C 297.172 167.721,296.915 167.011,296.451 166.384 C 295.988 165.757,295.709 164.982,295.831 164.662 C 295.954 164.343,295.859 163.960,295.621 163.813 C 295.382 163.665,295.292 163.375,295.419 163.168 C 295.547 162.962,295.298 162.342,294.865 161.791 C 294.413 161.217,294.166 160.452,294.285 159.995 C 294.400 159.558,294.298 159.200,294.059 159.200 C 293.820 159.200,293.720 158.953,293.836 158.652 C 293.951 158.350,293.796 157.853,293.491 157.548 C 293.186 157.243,293.005 156.786,293.089 156.533 C 293.173 156.280,293.061 155.961,292.839 155.824 C 292.617 155.687,292.536 155.310,292.660 154.987 C 292.784 154.664,292.725 154.400,292.528 154.400 C 292.331 154.400,292.146 154.085,292.116 153.700 C 292.085 153.315,291.838 152.460,291.566 151.800 C 291.294 151.140,291.108 150.375,291.153 150.100 C 291.198 149.825,291.037 149.600,290.794 149.600 C 290.551 149.600,290.455 149.435,290.580 149.232 C 290.705 149.030,290.581 148.625,290.304 148.332 C 290.027 148.040,289.748 147.440,289.684 147.000 C 289.456 145.434,289.340 144.986,288.873 143.874 C 288.613 143.255,288.400 142.400,288.400 141.974 C 288.400 141.548,288.209 141.200,287.976 141.200 C 287.743 141.200,287.681 140.993,287.838 140.739 C 287.994 140.486,287.852 140.081,287.521 139.839 C 287.191 139.598,286.893 139.265,286.860 139.100 C 286.827 138.935,286.790 138.755,286.777 138.700 C 286.764 138.645,286.684 137.933,286.598 137.118 C 286.512 136.302,286.137 135.170,285.764 134.601 C 283.906 131.765,285.771 128.786,289.400 128.795 C 289.840 128.796,290.789 128.438,291.510 127.999 C 292.230 127.559,293.220 127.196,293.710 127.191 C 294.199 127.186,295.385 126.826,296.344 126.391 C 297.303 125.956,298.428 125.600,298.845 125.600 C 299.262 125.600,300.275 125.240,301.096 124.800 C 301.916 124.360,302.915 124.000,303.314 124.000 C 303.713 124.000,304.552 123.735,305.178 123.411 C 305.804 123.088,307.010 122.648,307.858 122.434 C 310.086 121.872,313.213 120.834,314.600 120.195 C 315.260 119.891,316.430 119.464,317.200 119.246 C 328.839 115.948,338.189 106.568,339.776 96.600 C 339.916 95.720,340.328 93.807,340.691 92.349 C 341.254 90.091,341.279 89.351,340.857 87.349 C 340.585 86.057,340.125 83.740,339.835 82.200 C 339.545 80.660,339.014 78.860,338.656 78.200 C 338.298 77.540,338.000 76.730,337.994 76.400 C 337.987 76.070,337.630 75.350,337.200 74.800 C 336.770 74.250,336.414 73.646,336.409 73.459 C 336.331 70.451,323.425 60.400,319.641 60.400 C 319.056 60.400,318.133 60.085,317.589 59.700 C 316.125 58.664,306.170 58.448,303.600 59.397 C 302.610 59.762,301.037 60.222,300.105 60.417 C 299.173 60.613,297.877 61.050,297.225 61.387 C 296.573 61.724,295.716 62.001,295.320 62.002 C 294.924 62.004,294.072 62.280,293.426 62.617 C 292.781 62.954,291.611 63.390,290.826 63.587 C 289.481 63.926,287.177 64.681,284.000 65.827 C 282.411 66.399,280.257 67.110,274.800 68.861 C 272.710 69.531,270.460 70.308,269.800 70.587 C 269.140 70.865,267.749 71.363,266.710 71.693 L 264.820 72.294 264.050 70.647 C 263.627 69.741,263.162 68.316,263.018 67.479 C 262.874 66.642,262.534 65.873,262.262 65.769 C 261.991 65.664,261.726 65.022,261.674 64.340 C 261.622 63.659,261.254 62.268,260.855 61.251 C 259.968 58.987,258.942 56.001,258.227 53.600 C 257.540 51.297,256.840 49.316,256.176 47.800 C 255.888 47.140,255.532 45.970,255.386 45.200 C 255.241 44.430,254.896 43.440,254.621 43.000 C 254.346 42.560,253.990 41.480,253.831 40.600 C 253.671 39.720,253.308 38.637,253.023 38.194 C 252.738 37.751,252.371 36.776,252.206 36.028 C 251.053 30.776,243.714 22.300,237.848 19.447 C 231.813 16.511,232.432 16.642,224.200 16.543 C 220.020 16.493,216.060 16.589,215.400 16.757 M347.054 192.511 C 346.417 192.977,346.446 193.029,347.378 193.106 C 348.054 193.162,348.400 192.990,348.400 192.596 C 348.400 191.865,347.974 191.838,347.054 192.511 M338.800 195.190 C 338.800 195.442,338.620 195.536,338.400 195.400 C 338.180 195.264,338.000 195.342,338.000 195.574 C 338.000 196.087,339.348 195.934,339.530 195.401 C 339.601 195.191,339.466 194.956,339.230 194.877 C 338.994 194.798,338.800 194.939,338.800 195.190 M329.600 198.424 C 329.600 198.657,329.420 198.736,329.200 198.600 C 328.980 198.464,328.800 198.628,328.800 198.964 C 328.800 199.343,329.028 199.487,329.400 199.345 C 329.943 199.136,330.281 198.000,329.800 198.000 C 329.690 198.000,329.600 198.191,329.600 198.424 M324.267 199.867 C 323.806 200.327,323.975 200.800,324.600 200.800 C 324.930 200.800,325.200 200.530,325.200 200.200 C 325.200 199.575,324.727 199.406,324.267 199.867 " stroke="none" fill="#8cb414" fill-rule="evenodd"></path><path id="path1" d="M192.924 46.600 C 192.926 47.920,193.001 48.412,193.090 47.693 C 193.179 46.974,193.177 45.894,193.086 45.293 C 192.995 44.692,192.922 45.280,192.924 46.600 M331.600 67.400 C 332.346 68.170,333.047 68.800,333.157 68.800 C 333.267 68.800,332.746 68.170,332.000 67.400 C 331.254 66.630,330.553 66.000,330.443 66.000 C 330.333 66.000,330.854 66.630,331.600 67.400 M68.800 69.800 C 67.828 70.790,67.123 71.600,67.233 71.600 C 67.343 71.600,68.228 70.790,69.200 69.800 C 70.172 68.810,70.877 68.000,70.767 68.000 C 70.657 68.000,69.772 68.810,68.800 69.800 M354.500 191.476 C 354.885 191.576,355.515 191.576,355.900 191.476 C 356.285 191.375,355.970 191.293,355.200 191.293 C 354.430 191.293,354.115 191.375,354.500 191.476 M175.161 250.913 C 174.810 251.401,174.306 252.459,174.042 253.264 C 173.472 255.003,173.737 254.881,161.400 259.096 C 156.560 260.750,147.110 263.991,140.400 266.298 C 133.690 268.605,126.760 270.858,125.000 271.306 C 123.240 271.753,121.440 272.262,121.000 272.437 C 120.560 272.612,119.445 272.869,118.523 273.009 C 117.601 273.148,116.634 273.518,116.374 273.831 C 116.114 274.144,115.228 274.400,114.405 274.400 C 113.514 274.400,112.496 274.724,111.891 275.200 C 111.265 275.692,110.268 276.000,109.299 276.000 C 108.266 276.000,107.490 276.259,107.044 276.752 C 106.669 277.165,105.629 277.621,104.731 277.765 C 103.833 277.908,102.721 278.290,102.260 278.613 C 101.799 278.936,101.057 279.201,100.611 279.203 C 100.165 279.204,99.260 279.563,98.600 280.000 C 97.940 280.437,96.798 280.796,96.063 280.797 C 95.328 280.799,94.269 281.160,93.709 281.600 C 93.098 282.081,92.086 282.400,91.175 282.400 C 90.306 282.400,89.379 282.678,89.005 283.052 C 88.647 283.410,87.509 283.794,86.477 283.905 C 85.384 284.022,84.301 284.418,83.884 284.853 C 83.474 285.281,82.616 285.600,81.873 285.600 C 81.161 285.600,80.200 285.865,79.738 286.188 C 78.796 286.848,72.800 287.367,72.800 286.789 C 72.800 286.589,73.070 286.529,73.400 286.655 C 73.780 286.801,74.000 286.650,74.000 286.243 C 74.000 285.402,73.815 285.429,72.284 286.489 C 68.752 288.934,62.000 297.029,62.000 298.818 C 62.000 299.052,61.660 299.999,61.244 300.922 C 60.828 301.845,60.362 303.590,60.209 304.800 C 60.055 306.010,59.675 307.771,59.365 308.714 C 58.650 310.882,58.669 313.739,59.411 315.800 C 59.728 316.680,60.103 318.300,60.245 319.400 C 61.168 326.560,68.288 335.527,76.081 339.344 C 78.215 340.389,80.645 341.340,81.481 341.457 C 82.316 341.574,83.679 341.924,84.508 342.235 C 86.551 343.000,92.991 342.979,95.200 342.200 C 96.135 341.870,97.340 341.600,97.876 341.600 C 98.413 341.600,99.695 341.257,100.726 340.838 C 103.061 339.890,106.105 338.878,108.200 338.355 C 109.080 338.135,110.199 337.695,110.686 337.378 C 111.173 337.060,111.986 336.800,112.492 336.800 C 112.998 336.800,114.084 336.440,114.904 336.000 C 115.725 335.560,116.765 335.200,117.214 335.200 C 117.664 335.200,118.738 334.840,119.600 334.400 C 120.462 333.960,121.580 333.599,122.084 333.599 C 122.588 333.598,123.589 333.238,124.310 332.799 C 125.030 332.359,126.023 332.000,126.516 332.000 C 127.009 332.000,128.084 331.640,128.904 331.200 C 129.725 330.760,130.805 330.400,131.304 330.400 C 131.804 330.400,132.884 330.040,133.704 329.600 C 134.525 329.160,135.603 328.797,136.099 328.794 C 136.594 328.791,137.264 328.621,137.586 328.417 C 138.255 327.994,140.000 330.970,140.000 332.533 C 140.000 333.016,140.360 334.084,140.800 334.904 C 141.240 335.725,141.606 336.713,141.614 337.099 C 141.621 337.484,141.975 338.520,142.400 339.400 C 142.825 340.280,143.180 341.360,143.189 341.800 C 143.198 342.240,143.448 343.067,143.746 343.637 C 144.044 344.208,144.416 345.359,144.573 346.196 C 144.730 347.032,145.097 348.096,145.390 348.558 C 145.682 349.021,146.050 350.030,146.207 350.800 C 146.364 351.570,146.638 352.382,146.817 352.605 C 146.995 352.828,147.362 353.908,147.633 355.005 C 147.903 356.102,148.366 357.355,148.662 357.789 C 148.958 358.223,149.200 359.036,149.200 359.595 C 149.200 360.154,149.534 361.239,149.941 362.006 C 150.349 362.773,150.815 364.120,150.977 365.000 C 151.139 365.880,151.433 366.796,151.630 367.035 C 151.828 367.274,152.252 368.213,152.572 369.122 C 154.700 375.152,162.851 383.255,168.572 385.026 C 169.467 385.303,170.792 385.832,171.516 386.202 C 174.041 387.493,187.858 387.157,191.441 385.717 C 197.672 383.214,204.352 377.821,206.777 373.338 C 207.234 372.492,207.766 371.530,207.959 371.200 C 208.768 369.815,209.999 366.487,210.253 365.000 C 210.403 364.120,210.767 362.821,211.063 362.113 C 211.988 359.895,211.700 354.444,210.690 355.068 C 210.429 355.229,210.356 355.091,210.502 354.711 C 210.679 354.250,210.542 354.142,209.970 354.292 C 209.457 354.426,209.200 354.288,209.200 353.879 C 209.200 353.542,209.100 353.004,208.977 352.684 C 208.854 352.365,209.034 351.823,209.377 351.480 C 209.720 351.137,209.997 350.619,209.994 350.329 C 209.989 349.938,209.886 349.957,209.600 350.400 C 209.342 350.800,209.210 350.833,209.206 350.500 C 209.203 350.225,208.846 350.000,208.414 350.000 C 207.456 350.000,206.800 348.872,206.800 347.226 C 206.800 346.533,206.452 345.652,206.000 345.200 C 205.435 344.635,205.200 343.867,205.200 342.587 C 205.200 341.357,205.010 340.702,204.609 340.548 C 204.256 340.413,203.912 339.532,203.758 338.367 C 203.615 337.293,203.260 336.216,202.969 335.974 C 202.678 335.732,202.318 334.694,202.171 333.667 C 202.023 332.640,201.676 331.530,201.400 331.200 C 201.124 330.870,200.777 329.761,200.630 328.735 C 200.477 327.676,200.111 326.775,199.781 326.648 C 199.380 326.494,199.200 325.805,199.200 324.427 C 199.200 322.838,199.036 322.340,198.400 322.000 C 197.790 321.674,197.600 321.162,197.600 319.848 C 197.600 318.632,197.364 317.911,196.800 317.400 C 196.236 316.889,196.000 316.168,196.000 314.952 C 196.000 313.638,195.810 313.126,195.200 312.800 C 194.569 312.462,194.400 311.962,194.400 310.429 C 194.400 309.089,194.218 308.416,193.813 308.260 C 192.858 307.894,193.193 308.829,181.342 273.465 C 175.350 255.585,174.948 253.860,176.202 251.454 C 177.123 249.689,176.337 249.280,175.161 250.913 " stroke="none" fill="#6f346f" fill-rule="evenodd"></path><path id="path2" d="M193.256 52.000 C 193.256 52.330,193.411 52.960,193.600 53.400 C 193.817 53.904,193.944 53.978,193.944 53.600 C 193.944 53.270,193.789 52.640,193.600 52.200 C 193.383 51.696,193.256 51.622,193.256 52.000 M194.951 57.995 C 195.207 59.332,196.400 61.082,196.400 60.119 C 196.400 59.870,196.231 59.607,196.024 59.533 C 195.816 59.460,195.554 58.883,195.441 58.251 C 195.328 57.619,195.111 56.989,194.960 56.851 C 194.809 56.713,194.805 57.228,194.951 57.995 M198.249 67.492 C 198.481 68.786,199.200 69.702,199.200 68.704 C 199.200 68.343,199.017 67.934,198.793 67.796 C 198.570 67.658,198.483 67.390,198.600 67.200 C 198.717 67.010,198.641 66.749,198.432 66.619 C 198.208 66.482,198.133 66.844,198.249 67.492 M199.200 70.644 C 199.200 70.877,199.325 71.191,199.477 71.344 C 199.629 71.496,199.814 72.017,199.888 72.502 C 199.962 72.986,200.221 73.567,200.463 73.791 C 200.780 74.085,200.826 73.873,200.627 73.033 C 200.339 71.815,199.200 69.909,199.200 70.644 M201.232 76.500 C 201.214 76.885,201.470 77.200,201.800 77.200 C 202.130 77.200,202.400 77.009,202.400 76.776 C 202.400 76.543,202.235 76.455,202.034 76.579 C 201.833 76.703,201.577 76.579,201.466 76.302 C 201.344 75.999,201.251 76.078,201.232 76.500 M118.751 80.361 C 119.072 80.565,119.172 80.922,118.989 81.217 C 118.786 81.547,118.838 81.624,119.138 81.438 C 119.851 80.998,119.684 79.999,118.900 80.006 C 118.346 80.011,118.315 80.085,118.751 80.361 M118.800 82.509 C 118.800 82.716,119.090 82.774,119.445 82.638 C 119.880 82.471,120.022 82.565,119.883 82.929 C 119.769 83.225,119.929 83.467,120.238 83.467 C 120.863 83.467,120.933 83.217,120.494 82.561 C 120.136 82.025,118.800 81.985,118.800 82.509 M121.134 86.482 C 121.428 86.858,121.564 87.334,121.437 87.541 C 121.309 87.747,121.453 88.012,121.757 88.128 C 122.516 88.420,122.122 86.989,121.257 86.313 C 120.675 85.858,120.661 85.878,121.134 86.482 M204.492 86.475 C 204.579 86.736,204.864 87.021,205.125 87.108 C 205.418 87.206,205.507 87.023,205.357 86.633 C 205.078 85.906,204.252 85.755,204.492 86.475 M205.600 89.444 C 205.600 89.662,205.771 90.011,205.980 90.220 C 206.442 90.682,205.277 93.294,204.753 92.971 C 204.559 92.851,204.400 92.912,204.400 93.107 C 204.400 93.302,203.860 93.382,203.200 93.285 C 202.497 93.182,202.000 93.289,202.000 93.542 C 202.000 93.780,201.748 93.878,201.440 93.760 C 201.133 93.642,200.769 93.727,200.631 93.950 C 200.494 94.172,199.544 94.479,198.520 94.633 C 197.283 94.818,196.324 95.263,195.664 95.956 C 195.117 96.530,194.799 96.775,194.958 96.500 C 195.271 95.960,194.343 95.790,193.838 96.295 C 193.676 96.457,193.331 96.593,193.072 96.597 C 192.812 96.600,191.790 96.905,190.800 97.274 C 189.810 97.643,188.510 98.049,187.911 98.177 C 187.313 98.305,186.602 98.646,186.332 98.934 C 186.063 99.223,185.428 99.380,184.921 99.283 C 184.382 99.180,184.000 99.302,184.000 99.577 C 184.000 99.836,183.820 99.936,183.601 99.801 C 183.381 99.665,182.706 99.807,182.101 100.117 C 180.696 100.836,177.325 102.014,175.904 102.282 C 175.301 102.396,174.906 102.647,175.025 102.840 C 175.144 103.033,174.978 103.090,174.657 102.966 C 174.335 102.843,173.471 103.061,172.736 103.450 C 172.001 103.840,171.085 104.112,170.700 104.054 C 170.315 103.997,170.000 104.152,170.000 104.398 C 170.000 104.645,169.836 104.746,169.636 104.622 C 169.188 104.346,167.944 104.785,168.164 105.142 C 168.252 105.284,167.888 105.426,167.356 105.458 C 165.453 105.572,164.400 106.017,164.394 106.708 C 164.390 107.188,164.293 107.251,164.078 106.913 C 163.846 106.547,163.442 106.625,162.452 107.227 C 161.728 107.667,161.251 107.841,161.392 107.614 C 161.781 106.984,160.932 107.118,159.284 107.946 C 158.468 108.356,157.131 108.813,156.314 108.961 C 155.497 109.110,154.704 109.432,154.552 109.677 C 154.373 109.967,154.460 110.010,154.800 109.800 C 155.151 109.583,155.227 109.632,155.032 109.949 C 154.871 110.209,154.528 110.395,154.270 110.363 C 152.626 110.160,151.200 110.456,151.200 111.000 C 151.200 111.602,150.609 111.756,148.855 111.610 C 148.297 111.563,148.014 111.699,148.163 111.940 C 148.320 112.194,148.032 112.280,147.408 112.167 C 146.643 112.028,146.399 112.155,146.394 112.692 C 146.389 113.238,146.310 113.277,146.046 112.861 C 145.776 112.434,145.514 112.518,144.793 113.261 C 144.292 113.777,144.009 113.975,144.165 113.700 C 144.508 113.093,144.240 113.082,142.290 113.624 C 141.459 113.855,140.888 114.218,141.019 114.432 C 141.151 114.645,141.111 114.780,140.930 114.731 C 140.203 114.534,136.801 115.275,136.548 115.685 C 136.371 115.971,136.471 116.010,136.838 115.798 C 137.147 115.618,137.261 115.624,137.092 115.811 C 136.922 115.997,136.472 116.177,136.092 116.212 C 135.711 116.246,134.653 116.405,133.741 116.565 C 132.686 116.750,131.986 116.700,131.817 116.428 C 131.434 115.808,130.400 115.902,130.400 116.557 C 130.400 117.269,131.263 117.600,132.461 117.348 L 133.400 117.150 132.444 117.719 C 129.879 119.246,129.903 120.054,132.772 128.673 C 135.839 137.890,147.022 170.794,147.389 171.682 C 147.764 172.586,150.366 174.098,151.079 173.825 C 151.389 173.706,151.532 173.787,151.397 174.005 C 151.263 174.222,151.423 174.400,151.753 174.400 C 152.083 174.400,152.466 174.217,152.604 173.993 C 152.742 173.770,153.009 173.682,153.198 173.799 C 153.571 174.029,155.599 173.218,155.602 172.836 C 155.604 172.706,156.343 172.572,157.245 172.537 C 158.147 172.503,159.072 172.288,159.300 172.060 C 159.587 171.773,159.419 171.703,158.758 171.834 C 157.803 172.022,157.803 172.021,158.700 171.624 C 159.196 171.405,159.871 171.329,160.200 171.456 C 160.530 171.582,160.800 171.511,160.800 171.298 C 160.800 171.085,161.250 170.997,161.800 171.102 C 162.350 171.207,162.800 171.131,162.800 170.932 C 162.800 170.734,163.115 170.554,163.500 170.533 C 164.266 170.491,165.917 169.943,169.000 168.708 C 170.100 168.268,171.405 167.926,171.900 167.949 C 172.395 167.972,172.800 167.819,172.800 167.608 C 172.800 167.397,173.052 167.322,173.360 167.440 C 173.667 167.558,174.055 167.434,174.221 167.165 C 174.427 166.832,174.357 166.779,174.000 167.000 C 173.664 167.207,173.573 167.167,173.746 166.887 C 173.894 166.647,174.417 166.443,174.908 166.432 C 175.399 166.422,176.205 166.409,176.700 166.402 C 177.195 166.396,177.600 166.219,177.600 166.008 C 177.600 165.797,177.868 165.728,178.197 165.854 C 178.525 165.980,178.893 165.824,179.014 165.508 C 179.232 164.939,179.758 164.787,181.500 164.790 C 181.995 164.790,182.400 164.602,182.400 164.372 C 182.400 164.141,182.607 164.081,182.861 164.238 C 183.114 164.394,183.519 164.270,183.761 163.961 C 184.189 163.414,184.581 163.304,186.952 163.064 C 187.585 162.999,188.305 162.689,188.552 162.374 C 188.986 161.818,189.373 161.707,191.692 161.468 C 192.292 161.406,193.266 160.915,193.856 160.378 C 194.446 159.840,194.780 159.656,194.599 159.968 C 194.341 160.411,194.437 160.465,195.034 160.215 C 195.455 160.038,196.115 159.906,196.500 159.922 C 196.885 159.937,197.200 159.691,197.200 159.375 C 197.200 159.059,197.515 158.803,197.900 158.806 C 198.505 158.811,198.519 158.871,198.000 159.244 C 197.518 159.591,197.557 159.620,198.200 159.392 C 198.640 159.237,199.360 159.008,199.800 158.885 C 200.240 158.762,200.780 158.441,201.000 158.171 C 201.220 157.901,201.850 157.561,202.400 157.414 C 203.166 157.210,203.260 157.246,202.800 157.568 C 201.916 158.186,202.495 158.090,204.251 157.326 C 205.103 156.956,206.005 156.689,206.254 156.733 C 206.504 156.778,206.814 156.541,206.942 156.207 C 207.070 155.873,207.406 155.603,207.687 155.606 C 208.052 155.610,208.026 155.737,207.600 156.044 C 207.101 156.403,207.123 156.435,207.733 156.238 C 208.136 156.107,208.551 156.000,208.656 156.000 C 208.761 156.000,208.756 155.853,208.645 155.672 C 208.533 155.492,208.973 155.423,209.621 155.518 C 210.354 155.625,210.800 155.514,210.800 155.222 C 210.800 154.964,210.967 154.856,211.170 154.981 C 211.589 155.240,213.600 154.421,213.600 153.991 C 213.600 153.837,214.050 153.797,214.600 153.902 C 215.208 154.018,215.600 153.909,215.600 153.623 C 215.600 153.364,215.767 153.256,215.970 153.381 C 216.412 153.655,218.400 152.810,218.400 152.348 C 218.400 152.171,218.658 152.124,218.973 152.245 C 219.287 152.366,220.080 152.069,220.735 151.585 C 221.389 151.102,222.121 150.828,222.362 150.976 C 222.603 151.125,222.800 151.072,222.800 150.859 C 222.800 150.645,223.340 150.555,224.000 150.659 C 224.678 150.766,225.200 150.669,225.200 150.437 C 225.200 150.210,225.451 150.121,225.758 150.239 C 226.139 150.385,226.497 149.909,226.888 148.736 L 227.460 147.019 218.713 120.813 C 209.662 93.696,208.995 92.068,206.923 92.013 C 206.661 92.006,206.508 91.680,206.583 91.289 C 206.658 90.898,206.468 90.234,206.160 89.813 C 205.852 89.392,205.600 89.225,205.600 89.444 M122.338 91.400 C 122.241 92.500,122.328 93.468,122.531 93.550 C 122.734 93.633,123.238 94.038,123.650 94.450 C 124.063 94.863,124.400 95.031,124.400 94.824 C 124.400 94.617,124.217 94.334,123.993 94.196 C 123.770 94.058,123.689 93.779,123.814 93.577 C 123.939 93.374,123.778 92.622,123.457 91.904 C 123.135 91.187,122.791 90.330,122.693 90.000 C 122.594 89.670,122.435 90.300,122.338 91.400 M124.223 96.167 C 125.061 96.780,125.440 96.713,125.016 96.027 C 124.871 95.792,124.459 95.600,124.100 95.600 C 123.554 95.600,123.574 95.693,124.223 96.167 M125.400 99.338 C 125.400 99.812,125.715 100.515,126.100 100.900 C 126.485 101.285,126.800 101.431,126.800 101.224 C 126.800 101.017,126.620 100.736,126.400 100.600 C 126.180 100.464,126.000 100.014,126.000 99.600 C 126.000 99.186,125.865 98.764,125.700 98.662 C 125.535 98.560,125.400 98.864,125.400 99.338 M126.162 102.462 C 125.972 102.769,126.054 102.814,126.406 102.596 C 126.794 102.356,126.865 102.453,126.673 102.955 C 126.516 103.363,126.570 103.542,126.805 103.397 C 127.308 103.086,127.323 102.000,126.824 102.000 C 126.617 102.000,126.319 102.208,126.162 102.462 M128.400 107.424 C 128.400 107.816,128.215 107.936,127.900 107.747 C 127.560 107.543,127.576 107.663,127.949 108.123 C 128.640 108.975,128.610 108.988,128.708 107.800 C 128.754 107.250,128.703 106.800,128.596 106.800 C 128.488 106.800,128.400 107.081,128.400 107.424 M128.691 109.481 C 127.699 111.238,128.682 113.365,130.100 112.529 C 130.888 112.065,130.358 111.115,129.412 111.296 C 128.869 111.399,128.519 111.330,128.636 111.142 C 128.752 110.954,129.107 110.800,129.424 110.800 C 129.741 110.800,130.000 110.642,130.000 110.449 C 130.000 109.925,128.899 109.111,128.691 109.481 M130.406 114.214 C 130.417 114.903,131.148 115.785,131.454 115.479 C 131.618 115.315,131.448 114.877,131.076 114.505 C 130.704 114.133,130.403 114.002,130.406 114.214 M14.901 174.600 C 14.905 175.480,14.987 175.793,15.083 175.295 C 15.179 174.798,15.175 174.078,15.075 173.695 C 14.975 173.313,14.896 173.720,14.901 174.600 M14.914 183.800 C 14.917 184.900,14.995 185.303,15.087 184.695 C 15.179 184.086,15.177 183.186,15.082 182.695 C 14.987 182.203,14.911 182.700,14.914 183.800 " stroke="none" fill="#50d3eb" fill-rule="evenodd"></path><path id="path3" d="M193.704 52.694 C 193.757 53.587,193.920 54.246,194.066 54.157 C 194.212 54.068,194.399 54.197,194.481 54.443 C 194.563 54.689,194.836 54.440,195.087 53.889 C 195.483 53.020,195.415 52.765,194.576 51.977 L 193.609 51.069 193.704 52.694 M194.400 56.690 C 194.400 56.997,194.561 57.148,194.758 57.026 C 195.329 56.673,195.586 57.847,195.069 58.445 C 194.811 58.743,194.757 58.862,194.950 58.710 C 195.142 58.558,195.623 58.831,196.019 59.317 L 196.738 60.200 197.185 59.031 C 197.741 57.579,197.471 56.800,196.413 56.800 C 195.966 56.800,195.600 56.650,195.600 56.467 C 195.600 56.283,195.330 56.133,195.000 56.133 C 194.670 56.133,194.400 56.384,194.400 56.690 M88.200 61.061 C 86.534 61.511,83.557 61.960,81.300 62.102 C 81.025 62.119,80.800 62.294,80.800 62.490 C 80.800 62.687,80.620 62.736,80.400 62.600 C 80.180 62.464,80.000 62.526,80.000 62.737 C 80.000 63.197,77.769 64.035,77.434 63.701 C 77.305 63.572,77.200 63.687,77.200 63.957 C 77.200 64.227,77.020 64.336,76.800 64.200 C 76.580 64.064,76.400 64.112,76.400 64.305 C 76.400 64.499,75.590 65.063,74.600 65.557 C 73.610 66.052,72.800 66.653,72.800 66.895 C 72.800 67.136,72.699 67.232,72.576 67.109 C 71.933 66.466,65.758 73.606,64.161 76.838 C 63.573 78.027,62.802 79.346,62.446 79.769 C 61.924 80.389,61.916 80.471,62.400 80.192 C 62.920 79.892,62.926 79.938,62.442 80.534 C 62.136 80.911,61.859 81.711,61.827 82.310 C 61.796 82.910,61.512 83.850,61.196 84.400 C 60.472 85.661,60.193 96.669,60.865 97.478 C 61.103 97.765,61.182 98.000,61.040 98.000 C 60.898 98.000,61.075 98.449,61.435 98.997 C 61.794 99.545,61.984 100.265,61.857 100.597 C 61.729 100.929,61.810 101.200,62.036 101.200 C 62.262 101.200,62.339 101.375,62.207 101.588 C 62.075 101.802,62.260 102.542,62.617 103.234 C 62.975 103.925,63.531 105.505,63.854 106.745 C 64.177 107.985,64.612 109.171,64.821 109.380 C 65.029 109.589,65.201 110.129,65.202 110.580 C 65.204 111.031,65.457 111.883,65.765 112.473 C 66.073 113.063,66.452 114.143,66.608 114.873 C 66.765 115.603,67.097 116.460,67.346 116.777 C 67.710 117.239,67.681 117.286,67.200 117.012 C 66.858 116.818,66.956 117.087,67.427 117.635 C 67.881 118.166,68.237 118.960,68.217 119.400 C 68.197 119.840,68.414 120.693,68.698 121.296 C 68.983 121.899,69.200 122.439,69.180 122.496 C 69.160 122.553,69.336 123.107,69.572 123.726 C 69.807 124.345,70.000 125.029,70.000 125.246 C 70.000 125.463,70.280 126.181,70.622 126.842 C 70.964 127.504,71.313 128.589,71.397 129.254 C 71.481 129.920,71.832 130.895,72.177 131.421 C 72.522 131.948,72.881 132.968,72.975 133.689 C 73.069 134.410,73.179 135.090,73.220 135.200 C 73.261 135.310,73.273 135.535,73.247 135.700 C 73.221 135.865,73.380 136.000,73.600 136.000 C 73.820 136.000,74.000 136.270,74.000 136.600 C 74.000 136.930,73.865 137.172,73.700 137.138 C 73.535 137.103,72.530 137.478,71.467 137.971 C 70.403 138.464,69.430 138.763,69.304 138.637 C 69.177 138.510,68.832 138.607,68.537 138.852 C 68.242 139.097,67.997 139.141,67.994 138.949 C 67.991 138.757,67.841 138.831,67.661 139.114 C 67.482 139.397,66.859 139.715,66.278 139.820 C 65.697 139.926,64.766 140.185,64.210 140.396 C 63.655 140.607,63.200 140.682,63.200 140.562 C 63.200 140.441,62.917 140.626,62.571 140.971 C 62.226 141.317,61.551 141.627,61.071 141.661 C 59.523 141.769,57.600 142.379,57.600 142.762 C 57.600 142.909,57.266 143.055,56.857 143.086 C 56.448 143.117,55.413 143.451,54.557 143.829 C 53.701 144.208,52.640 144.560,52.200 144.612 C 50.241 144.844,49.150 145.193,48.569 145.774 C 48.225 146.118,47.551 146.401,47.071 146.402 C 46.592 146.404,45.681 146.675,45.047 147.006 C 44.413 147.337,43.388 147.696,42.768 147.806 C 42.148 147.915,41.137 148.196,40.521 148.430 C 39.904 148.665,39.310 148.859,39.200 148.862 C 39.090 148.865,38.820 149.009,38.600 149.182 C 38.380 149.354,37.480 149.626,36.601 149.785 C 35.721 149.943,34.904 150.232,34.784 150.427 C 34.663 150.621,34.213 150.835,33.783 150.901 C 33.352 150.968,32.775 151.164,32.500 151.335 C 32.225 151.507,32.000 151.534,32.000 151.395 C 32.000 151.256,31.717 151.426,31.371 151.771 C 31.026 152.117,30.508 152.400,30.220 152.400 C 29.933 152.400,29.454 152.694,29.155 153.054 C 28.653 153.659,26.538 155.183,24.728 156.244 C 23.484 156.974,22.000 158.503,22.000 159.056 C 22.000 159.340,21.640 159.765,21.200 160.000 C 20.760 160.235,20.400 160.692,20.400 161.014 C 20.400 161.336,20.265 161.603,20.100 161.606 C 19.935 161.610,19.360 162.510,18.821 163.606 C 18.283 164.703,17.719 165.600,17.569 165.600 C 17.418 165.600,17.080 166.453,16.818 167.495 C 16.555 168.537,16.137 169.635,15.888 169.935 C 15.161 170.811,15.111 171.416,15.126 179.200 C 15.141 187.222,15.142 187.232,16.080 189.000 C 16.430 189.660,16.780 190.650,16.858 191.200 C 16.936 191.750,17.309 192.542,17.686 192.961 C 18.064 193.379,18.278 193.874,18.163 194.061 C 18.047 194.247,18.102 194.400,18.285 194.400 C 18.468 194.400,18.957 195.030,19.372 195.800 C 19.787 196.570,20.266 197.200,20.436 197.200 C 20.607 197.200,20.852 197.535,20.982 197.945 C 21.256 198.806,24.198 202.000,24.718 202.000 C 24.910 202.000,25.536 202.495,26.109 203.100 C 27.435 204.501,28.400 205.299,28.400 204.993 C 28.400 204.862,28.940 205.074,29.600 205.464 C 30.260 205.854,30.800 206.275,30.800 206.401 C 30.800 206.527,31.189 206.659,31.664 206.695 C 32.139 206.731,32.654 206.964,32.809 207.214 C 32.963 207.464,33.249 207.675,33.445 207.682 C 33.640 207.690,34.233 207.861,34.763 208.062 C 35.292 208.263,36.442 208.497,37.319 208.581 C 38.195 208.666,39.022 208.884,39.156 209.067 C 39.826 209.981,50.800 210.021,50.800 209.110 C 50.800 208.913,50.968 208.856,51.172 208.983 C 51.377 209.109,51.650 209.042,51.779 208.833 C 51.908 208.625,52.524 208.468,53.147 208.486 C 53.770 208.504,54.882 208.218,55.617 207.851 C 56.849 207.237,58.678 206.740,59.900 206.688 C 60.175 206.676,60.400 206.506,60.400 206.310 C 60.400 206.113,60.580 206.064,60.800 206.200 C 61.020 206.336,61.200 206.287,61.200 206.090 C 61.200 205.894,61.425 205.705,61.700 205.670 C 63.234 205.478,63.884 205.305,64.647 204.890 C 65.113 204.636,65.608 204.542,65.747 204.681 C 65.886 204.820,66.000 204.713,66.000 204.443 C 66.000 204.173,66.168 204.056,66.372 204.183 C 66.577 204.309,66.851 204.242,66.980 204.032 C 67.110 203.822,67.527 203.642,67.908 203.631 C 69.422 203.587,70.000 203.452,70.000 203.145 C 70.000 202.967,71.035 202.533,72.300 202.180 C 73.565 201.826,75.200 201.266,75.932 200.934 C 76.665 200.603,77.369 200.435,77.496 200.562 C 77.623 200.689,77.968 200.593,78.263 200.348 C 78.558 200.103,78.800 200.027,78.800 200.180 C 78.800 200.332,79.083 200.174,79.429 199.829 C 79.774 199.483,80.449 199.173,80.929 199.139 C 82.293 199.044,82.500 198.987,84.200 198.241 C 85.080 197.855,86.160 197.478,86.600 197.404 C 88.186 197.135,89.200 196.699,89.200 196.287 C 89.200 196.056,89.306 195.973,89.436 196.103 C 89.566 196.233,90.392 196.085,91.272 195.775 C 92.352 195.394,93.103 195.334,93.583 195.591 C 93.975 195.800,94.387 195.879,94.500 195.767 C 94.613 195.654,94.656 196.145,94.595 196.858 C 94.465 198.386,94.740 199.284,95.242 198.974 C 95.439 198.852,95.600 198.943,95.600 199.176 C 95.600 199.409,95.407 199.600,95.171 199.600 C 94.912 199.600,94.952 199.832,95.271 200.186 C 96.878 201.968,96.930 202.072,96.381 202.412 C 95.951 202.677,95.947 202.855,96.360 203.352 C 96.640 203.689,96.734 204.183,96.569 204.450 C 96.354 204.797,96.487 204.853,97.034 204.644 C 97.646 204.411,97.700 204.453,97.303 204.854 C 96.906 205.253,96.981 205.541,97.673 206.277 C 98.152 206.788,98.323 207.200,98.056 207.200 C 97.696 207.200,97.682 207.405,98.000 208.000 C 98.235 208.440,98.304 208.800,98.152 208.800 C 98.000 208.800,98.202 209.160,98.600 209.600 C 98.998 210.040,99.185 210.400,99.016 210.400 C 98.847 210.400,99.003 210.850,99.363 211.400 C 99.798 212.063,99.860 212.400,99.547 212.400 C 99.246 212.400,99.304 212.653,99.707 213.100 C 100.054 213.485,100.461 214.295,100.612 214.900 C 100.763 215.505,101.069 216.000,101.292 216.000 C 101.525 216.000,101.486 216.255,101.200 216.600 C 100.831 217.044,100.818 217.340,101.148 217.737 C 101.393 218.032,101.475 218.392,101.330 218.537 C 101.185 218.682,101.287 218.800,101.557 218.800 C 101.827 218.800,101.936 218.980,101.800 219.200 C 101.664 219.420,101.743 219.600,101.976 219.600 C 102.209 219.600,102.400 219.924,102.400 220.320 C 102.400 220.716,102.616 221.256,102.880 221.520 C 103.253 221.893,103.242 222.000,102.831 222.000 C 102.434 222.000,102.413 222.134,102.748 222.537 C 102.993 222.832,103.075 223.192,102.930 223.337 C 102.785 223.482,102.887 223.600,103.157 223.600 C 103.427 223.600,103.553 223.753,103.437 223.939 C 103.322 224.126,103.580 224.657,104.010 225.118 C 104.469 225.611,104.628 226.059,104.395 226.203 C 104.134 226.364,104.140 226.715,104.413 227.224 C 104.641 227.651,104.687 228.005,104.514 228.012 C 104.341 228.019,104.515 228.208,104.900 228.432 C 105.285 228.656,105.600 229.180,105.600 229.596 C 105.600 230.012,105.799 230.476,106.043 230.626 C 106.353 230.818,106.326 230.999,105.954 231.228 C 105.539 231.485,105.581 231.618,106.145 231.834 C 106.713 232.052,106.753 232.184,106.334 232.450 C 105.902 232.723,105.900 232.789,106.324 232.794 C 106.612 232.797,106.736 232.980,106.600 233.200 C 106.464 233.420,106.543 233.600,106.776 233.600 C 107.009 233.600,107.200 233.945,107.200 234.367 C 107.200 234.788,107.425 235.225,107.700 235.336 C 108.089 235.494,108.079 235.624,107.657 235.920 C 107.272 236.190,107.245 236.380,107.564 236.578 C 107.811 236.730,107.909 237.023,107.783 237.228 C 107.656 237.432,107.743 237.600,107.976 237.600 C 108.209 237.600,108.401 237.825,108.402 238.100 C 108.404 238.375,108.663 239.095,108.979 239.700 C 109.352 240.415,109.399 240.800,109.114 240.800 C 108.873 240.800,108.969 241.123,109.326 241.518 C 109.684 241.914,110.198 243.219,110.468 244.418 C 110.738 245.618,111.059 246.690,111.180 246.800 C 111.762 247.329,112.442 248.873,111.962 248.576 C 111.597 248.351,111.549 248.474,111.780 249.034 C 111.953 249.455,112.104 250.025,112.114 250.300 C 112.125 250.575,112.294 250.800,112.490 250.800 C 112.687 250.800,112.717 251.011,112.558 251.268 C 112.359 251.590,112.494 251.650,112.991 251.459 C 113.601 251.225,113.635 251.276,113.208 251.791 C 112.930 252.126,112.866 252.400,113.065 252.400 C 113.265 252.400,113.448 252.715,113.472 253.100 C 113.549 254.324,113.955 255.664,114.418 256.222 C 114.665 256.519,114.927 257.175,115.002 257.681 C 115.250 259.368,115.534 260.312,116.154 261.510 C 116.492 262.164,116.660 262.807,116.527 262.940 C 116.394 263.072,116.490 263.427,116.740 263.727 C 116.989 264.028,117.075 264.392,116.930 264.537 C 116.785 264.682,116.857 264.800,117.090 264.800 C 117.492 264.800,118.066 266.251,118.216 267.646 C 118.254 268.001,118.419 268.508,118.583 268.772 C 118.900 269.286,117.627 270.464,117.104 270.141 C 116.937 270.037,116.800 270.154,116.800 270.400 C 116.800 270.646,116.639 270.748,116.442 270.626 C 116.245 270.504,115.976 270.685,115.845 271.028 C 115.713 271.370,115.438 271.547,115.232 271.420 C 114.837 271.176,111.140 272.301,110.800 272.769 C 110.690 272.920,110.240 273.051,109.800 273.060 C 108.500 273.087,106.800 273.657,106.800 274.067 C 106.800 274.276,106.620 274.336,106.400 274.200 C 106.180 274.064,106.000 274.113,106.000 274.310 C 106.000 274.506,105.595 274.629,105.100 274.584 C 104.605 274.539,103.585 274.872,102.834 275.324 C 102.083 275.777,100.997 276.169,100.421 276.196 C 99.846 276.223,99.155 276.380,98.887 276.546 C 98.619 276.712,98.400 276.734,98.400 276.595 C 98.400 276.456,97.929 276.713,97.353 277.166 C 96.777 277.618,96.139 277.886,95.935 277.760 C 95.732 277.634,95.268 277.772,94.906 278.066 C 94.354 278.513,94.300 278.512,94.572 278.059 C 94.796 277.686,94.583 277.724,93.890 278.178 C 93.336 278.541,92.459 278.918,91.941 279.016 C 89.400 279.495,89.036 279.617,88.736 280.091 C 88.558 280.371,88.409 280.474,88.406 280.320 C 88.403 280.167,87.762 280.307,86.982 280.633 C 86.203 280.959,85.393 281.119,85.182 280.989 C 84.972 280.859,84.800 280.954,84.800 281.200 C 84.800 281.446,84.620 281.536,84.400 281.400 C 84.180 281.264,84.000 281.354,84.000 281.600 C 84.000 281.846,83.832 281.944,83.628 281.817 C 83.423 281.691,83.149 281.758,83.020 281.968 C 82.890 282.178,82.473 282.358,82.092 282.369 C 80.610 282.413,80.000 282.545,80.000 282.823 C 80.000 283.161,76.881 284.548,76.000 284.601 C 75.670 284.621,75.441 284.843,75.492 285.094 C 75.542 285.346,75.227 285.664,74.792 285.803 C 74.356 285.941,74.000 286.241,74.000 286.470 C 74.000 286.698,73.730 286.782,73.400 286.655 C 73.070 286.529,72.800 286.589,72.800 286.789 C 72.800 287.367,78.796 286.848,79.738 286.188 C 80.200 285.865,81.161 285.600,81.873 285.600 C 82.616 285.600,83.474 285.281,83.884 284.853 C 84.301 284.418,85.384 284.022,86.477 283.905 C 87.509 283.794,88.647 283.410,89.005 283.052 C 89.379 282.678,90.306 282.400,91.175 282.400 C 92.086 282.400,93.098 282.081,93.709 281.600 C 94.269 281.160,95.328 280.799,96.063 280.797 C 96.798 280.796,97.940 280.437,98.600 280.000 C 99.260 279.563,100.165 279.204,100.611 279.203 C 101.057 279.201,101.799 278.936,102.260 278.613 C 102.721 278.290,103.833 277.908,104.731 277.765 C 105.629 277.621,106.669 277.165,107.044 276.752 C 107.490 276.259,108.266 276.000,109.299 276.000 C 110.268 276.000,111.265 275.692,111.891 275.200 C 112.496 274.724,113.514 274.400,114.405 274.400 C 115.228 274.400,116.114 274.144,116.374 273.831 C 116.634 273.518,117.601 273.148,118.523 273.009 C 119.445 272.869,120.560 272.612,121.000 272.437 C 121.440 272.262,123.240 271.753,125.000 271.306 C 126.760 270.858,133.690 268.605,140.400 266.298 C 147.110 263.991,156.560 260.750,161.400 259.096 C 173.746 254.877,173.473 255.003,174.031 253.264 C 174.290 252.459,174.737 251.528,175.025 251.196 C 175.856 250.240,176.022 248.479,175.345 247.802 C 174.882 247.339,174.865 247.199,175.271 247.194 C 175.708 247.189,175.708 247.130,175.273 246.854 C 174.984 246.670,174.706 246.241,174.656 245.900 C 174.606 245.560,174.326 244.993,174.033 244.640 C 173.664 244.195,173.643 244.000,173.965 244.000 C 174.304 244.000,174.314 243.786,174.000 243.200 C 173.765 242.760,173.681 242.400,173.814 242.400 C 173.948 242.400,173.774 242.117,173.429 241.771 C 173.083 241.426,172.777 240.931,172.749 240.671 C 172.721 240.412,172.627 239.750,172.540 239.200 C 172.454 238.650,172.357 237.975,172.325 237.700 C 172.293 237.425,171.982 237.186,171.633 237.168 C 171.285 237.151,171.207 237.052,171.459 236.949 C 171.791 236.813,171.756 236.434,171.333 235.585 C 171.010 234.939,170.851 234.240,170.980 234.033 C 171.108 233.825,171.027 233.540,170.800 233.400 C 170.573 233.260,170.491 232.977,170.617 232.772 C 170.744 232.568,170.676 232.400,170.467 232.400 C 170.087 232.400,169.519 230.863,169.379 229.456 C 169.338 229.047,169.056 228.555,168.753 228.362 C 168.449 228.170,168.327 228.009,168.482 228.006 C 168.637 228.003,168.497 227.243,168.171 226.318 C 167.845 225.392,167.543 224.222,167.501 223.718 C 167.460 223.213,167.304 222.800,167.156 222.800 C 166.888 222.800,166.314 221.145,166.186 220.000 C 166.052 218.816,165.539 217.600,165.173 217.600 C 164.968 217.600,164.800 217.276,164.800 216.880 C 164.800 216.484,164.584 215.944,164.320 215.680 C 163.947 215.307,163.958 215.200,164.369 215.200 C 164.766 215.200,164.787 215.066,164.452 214.663 C 164.207 214.368,164.125 214.008,164.270 213.863 C 164.415 213.718,164.223 213.600,163.843 213.600 C 163.463 213.600,163.256 213.432,163.383 213.228 C 163.509 213.023,163.469 212.766,163.292 212.657 C 163.115 212.548,162.998 211.950,163.032 211.329 C 163.066 210.708,162.915 209.975,162.698 209.700 C 162.480 209.425,162.427 209.200,162.580 209.200 C 162.732 209.200,162.574 208.917,162.229 208.571 C 161.883 208.226,161.600 207.632,161.600 207.251 C 161.600 206.871,161.384 206.344,161.120 206.080 C 160.747 205.707,160.758 205.600,161.169 205.600 C 161.566 205.600,161.587 205.466,161.252 205.063 C 161.007 204.768,160.925 204.408,161.070 204.263 C 161.215 204.118,161.123 204.000,160.867 204.000 C 160.610 204.000,160.400 203.629,160.400 203.176 C 160.400 202.723,160.255 202.442,160.079 202.551 C 159.902 202.660,159.794 202.221,159.839 201.574 C 159.884 200.927,159.755 200.296,159.554 200.171 C 159.352 200.047,159.283 199.789,159.400 199.600 C 159.517 199.410,159.237 198.991,158.777 198.669 C 158.253 198.302,158.102 197.984,158.372 197.817 C 158.673 197.632,158.677 197.318,158.387 196.776 C 158.159 196.349,158.090 196.000,158.235 196.000 C 158.380 196.000,158.297 195.758,158.052 195.463 C 157.807 195.168,157.740 194.793,157.903 194.630 C 158.067 194.467,157.938 194.393,157.618 194.467 C 157.298 194.540,157.025 194.420,157.012 194.200 C 156.999 193.980,156.845 193.575,156.670 193.300 C 156.487 193.011,156.538 192.800,156.790 192.800 C 157.094 192.800,157.105 192.571,156.828 192.053 C 156.608 191.642,156.542 191.192,156.681 191.053 C 156.820 190.914,156.588 190.797,156.167 190.794 C 155.525 190.789,155.498 190.724,156.000 190.400 C 156.330 190.187,156.414 190.009,156.188 190.006 C 155.961 190.003,155.572 189.460,155.322 188.800 C 155.020 187.997,155.007 187.600,155.284 187.600 C 155.554 187.600,155.543 187.413,155.252 187.063 C 155.007 186.768,154.925 186.408,155.070 186.263 C 155.215 186.118,155.033 186.000,154.667 186.000 C 154.300 186.000,154.026 185.865,154.059 185.700 C 154.091 185.535,153.964 184.590,153.776 183.600 C 153.588 182.610,153.479 181.643,153.533 181.451 C 153.588 181.259,153.330 181.218,152.960 181.360 C 152.429 181.564,152.382 181.504,152.736 181.077 C 153.080 180.662,152.981 180.315,152.310 179.595 C 151.733 178.976,151.598 178.601,151.914 178.495 C 152.246 178.385,152.276 178.115,152.011 177.620 C 151.800 177.227,151.742 176.792,151.881 176.653 C 152.020 176.514,151.893 176.400,151.600 176.400 C 151.307 176.400,151.185 176.282,151.330 176.137 C 151.475 175.992,151.393 175.632,151.148 175.337 C 150.818 174.939,150.833 174.642,151.208 174.191 C 151.625 173.687,151.609 173.622,151.114 173.811 C 150.374 174.096,147.773 172.608,147.389 171.682 C 147.022 170.794,135.839 137.890,132.772 128.673 C 129.903 120.054,129.879 119.246,132.444 117.719 L 133.400 117.150 132.461 117.348 C 131.945 117.456,131.270 117.448,130.961 117.330 C 130.196 117.036,130.249 116.000,131.029 116.000 C 131.600 116.000,131.600 115.943,131.029 115.371 C 130.683 115.026,130.397 114.261,130.394 113.671 C 130.391 113.082,130.194 112.330,129.956 112.000 C 129.588 111.489,129.557 111.500,129.742 112.080 C 129.920 112.636,129.800 112.700,129.080 112.434 C 128.596 112.255,128.218 111.904,128.240 111.654 C 128.262 111.404,128.310 110.795,128.346 110.300 C 128.400 109.566,128.484 109.510,128.800 110.000 C 129.013 110.330,129.191 110.399,129.194 110.154 C 129.197 109.909,128.800 109.189,128.311 108.554 C 127.788 107.876,127.698 107.620,128.092 107.934 C 128.701 108.418,128.730 108.362,128.400 107.334 C 127.172 103.509,126.674 102.430,126.254 102.682 C 126.004 102.831,126.037 102.661,126.327 102.304 C 126.770 101.757,126.738 101.536,126.127 100.914 C 125.711 100.491,125.367 99.496,125.323 98.590 C 125.271 97.511,124.970 96.781,124.379 96.303 C 123.902 95.916,123.718 95.600,123.970 95.600 C 124.282 95.600,124.309 95.377,124.054 94.900 C 123.673 94.189,123.600 93.915,123.600 93.200 C 123.600 92.980,123.398 92.800,123.151 92.800 C 122.859 92.800,122.893 93.035,123.251 93.475 C 123.734 94.069,123.712 94.117,123.067 93.875 C 122.664 93.724,122.296 93.600,122.248 93.600 C 122.201 93.600,122.236 92.432,122.327 91.005 C 122.462 88.888,122.374 88.365,121.849 88.163 C 121.494 88.027,121.304 87.755,121.426 87.558 C 121.548 87.361,121.507 86.975,121.335 86.700 C 121.164 86.425,120.968 85.848,120.901 85.417 C 120.835 84.987,120.559 84.495,120.290 84.323 C 119.913 84.084,119.921 84.011,120.324 84.006 C 120.612 84.003,120.734 83.817,120.596 83.593 C 120.458 83.370,120.197 83.278,120.018 83.389 C 119.838 83.500,119.698 83.368,119.708 83.096 C 119.757 81.727,119.567 81.173,119.138 81.438 C 118.838 81.624,118.786 81.547,118.989 81.217 C 119.172 80.922,119.072 80.565,118.751 80.361 C 118.384 80.129,118.360 80.010,118.680 80.006 C 119.425 79.997,115.631 72.897,114.548 72.275 C 114.238 72.097,114.067 71.815,114.170 71.648 C 114.273 71.481,113.616 70.728,112.710 69.973 C 111.804 69.218,110.636 68.195,110.113 67.700 C 109.591 67.205,109.085 66.800,108.990 66.800 C 108.894 66.800,107.867 66.195,106.708 65.456 C 105.548 64.716,104.169 63.976,103.641 63.810 C 103.114 63.644,101.787 63.094,100.691 62.586 C 99.596 62.079,98.462 61.755,98.171 61.866 C 97.881 61.978,96.651 61.781,95.438 61.428 C 92.346 60.530,90.512 60.436,88.200 61.061 M196.000 61.000 C 196.000 61.330,196.193 61.600,196.429 61.600 C 196.665 61.600,196.794 61.915,196.715 62.300 C 196.636 62.685,196.831 63.198,197.148 63.440 C 197.465 63.683,197.709 64.433,197.690 65.108 C 197.669 65.870,197.889 66.425,198.273 66.573 C 198.782 66.768,198.800 66.918,198.377 67.427 C 197.955 67.936,197.965 68.024,198.432 67.923 C 198.800 67.843,198.988 68.123,198.966 68.717 C 198.909 70.289,200.182 69.611,200.316 67.997 C 200.418 66.775,200.280 66.533,199.214 66.065 C 198.544 65.771,198.110 65.345,198.250 65.118 C 199.137 63.683,199.113 61.947,198.202 61.601 C 197.694 61.408,197.160 61.058,197.015 60.825 C 196.629 60.200,196.000 60.308,196.000 61.000 M199.484 70.801 C 199.369 71.241,199.438 71.500,199.638 71.376 C 200.091 71.097,200.906 73.147,200.629 73.869 C 200.517 74.161,200.619 74.400,200.855 74.400 C 201.092 74.400,201.177 74.683,201.044 75.030 C 200.776 75.727,201.732 76.925,202.202 76.481 C 202.366 76.326,202.376 76.601,202.225 77.092 C 201.687 78.845,202.607 79.398,203.178 77.665 C 203.786 75.825,203.553 75.232,202.280 75.371 C 201.292 75.480,201.215 74.930,201.821 72.100 C 202.067 70.954,201.999 70.800,201.250 70.800 C 200.783 70.800,200.400 70.620,200.400 70.400 C 200.400 69.676,199.698 69.983,199.484 70.801 M202.687 80.389 C 202.562 80.868,202.637 81.101,202.870 80.957 C 203.099 80.815,203.209 81.109,203.133 81.656 C 203.043 82.292,203.179 82.562,203.549 82.484 C 203.898 82.410,204.012 82.591,203.862 82.984 C 203.732 83.323,203.785 83.600,203.982 83.600 C 204.500 83.600,205.349 80.784,204.943 80.408 C 204.063 79.592,202.898 79.583,202.687 80.389 M204.400 84.341 C 204.400 84.505,204.625 84.882,204.900 85.179 C 205.305 85.615,205.292 85.656,204.831 85.392 C 204.412 85.153,204.438 85.319,204.931 86.023 C 205.299 86.548,205.607 87.343,205.616 87.789 C 205.627 88.374,205.794 88.226,206.216 87.254 C 207.046 85.341,206.956 84.933,205.600 84.460 C 204.940 84.230,204.400 84.176,204.400 84.341 M205.892 89.570 C 205.777 90.011,205.865 90.334,206.088 90.286 C 206.311 90.239,206.547 90.514,206.611 90.897 C 206.676 91.281,207.447 92.240,208.326 93.028 C 209.905 94.446,210.026 94.770,218.662 120.685 C 223.468 135.108,227.453 146.476,227.518 145.947 C 227.582 145.418,224.771 136.439,221.271 125.993 C 211.126 95.717,210.457 93.824,209.761 93.400 C 207.886 92.257,207.395 91.662,207.900 91.148 C 208.603 90.433,208.521 89.736,207.700 89.446 C 207.315 89.311,206.798 89.102,206.551 88.983 C 206.304 88.865,206.007 89.128,205.892 89.570 M201.700 157.612 C 200.361 158.151,200.611 158.424,202.000 157.940 C 202.660 157.710,203.200 157.449,203.200 157.361 C 203.200 157.124,202.713 157.205,201.700 157.612 " stroke="none" fill="#2bb495" fill-rule="evenodd"></path><path id="path4" d="M348.400 192.424 C 348.400 193.129,348.212 193.218,347.100 193.043 C 346.310 192.919,345.448 193.069,344.900 193.428 C 344.404 193.753,344.000 193.835,344.000 193.609 C 344.000 192.770,343.198 193.235,343.154 194.100 C 343.119 194.777,343.062 194.827,342.924 194.300 C 342.704 193.456,342.826 193.463,341.050 194.205 C 340.254 194.537,339.647 195.008,339.702 195.252 C 339.839 195.867,338.288 196.063,337.916 195.478 C 337.689 195.121,337.611 195.132,337.606 195.524 C 337.603 195.812,337.420 195.936,337.200 195.800 C 336.980 195.664,336.800 195.738,336.800 195.964 C 336.800 196.190,336.504 196.261,336.142 196.122 C 335.748 195.971,335.282 196.146,334.981 196.559 C 334.639 197.027,334.388 197.104,334.200 196.800 C 334.012 196.497,333.733 196.586,333.332 197.076 C 333.005 197.477,332.869 197.532,333.029 197.200 C 333.263 196.713,333.216 196.694,332.779 197.100 C 332.482 197.375,331.809 197.600,331.283 197.600 C 330.673 197.600,330.252 197.881,330.123 198.372 C 329.872 199.333,328.800 199.813,328.800 198.964 C 328.800 198.628,328.980 198.464,329.200 198.600 C 329.420 198.736,329.600 198.657,329.600 198.424 C 329.600 197.781,328.886 197.917,328.484 198.636 C 328.288 198.986,328.009 199.256,327.864 199.236 C 326.131 199.001,325.200 199.268,325.200 200.000 C 325.200 200.444,324.933 200.800,324.600 200.800 C 324.270 200.800,324.000 200.609,324.000 200.376 C 324.000 200.143,324.208 200.081,324.462 200.238 C 324.749 200.416,324.815 200.348,324.636 200.058 C 324.423 199.714,324.120 199.750,323.485 200.196 C 323.010 200.528,322.223 200.800,321.735 200.800 C 321.247 200.800,320.734 200.983,320.596 201.207 C 320.458 201.430,320.177 201.509,319.972 201.383 C 319.768 201.256,319.600 201.373,319.600 201.643 C 319.600 201.913,319.486 202.020,319.347 201.881 C 319.208 201.742,318.713 201.838,318.247 202.094 C 317.781 202.350,317.006 202.512,316.525 202.454 C 316.044 202.397,315.279 202.721,314.825 203.175 C 314.371 203.629,314.000 203.888,314.000 203.751 C 314.000 203.614,313.766 203.697,313.479 203.934 C 313.193 204.172,312.563 204.263,312.079 204.137 C 311.411 203.962,311.192 204.086,311.168 204.653 C 311.151 205.075,311.049 205.182,310.935 204.900 C 310.824 204.625,310.433 204.414,310.067 204.432 C 309.693 204.449,309.609 204.548,309.875 204.656 C 310.355 204.852,310.148 205.194,308.200 207.422 C 307.650 208.051,305.396 208.985,301.000 210.406 C 297.480 211.543,289.560 214.150,283.400 216.198 C 254.932 225.663,255.154 225.605,251.737 224.584 C 251.152 224.409,250.615 224.585,250.070 225.130 C 249.628 225.572,249.174 225.840,249.060 225.727 C 248.946 225.613,248.625 225.661,248.347 225.833 C 248.068 226.005,247.471 226.184,247.020 226.231 C 246.256 226.310,244.138 226.996,240.800 228.246 C 240.030 228.534,238.630 228.965,237.688 229.204 C 236.746 229.442,236.059 229.772,236.160 229.936 C 236.262 230.100,235.786 230.277,235.104 230.329 C 234.421 230.381,233.039 230.804,232.032 231.270 C 231.024 231.735,229.795 232.077,229.300 232.030 C 228.805 231.982,228.400 232.146,228.400 232.395 C 228.400 232.644,228.225 232.739,228.011 232.607 C 227.798 232.475,227.213 232.622,226.711 232.935 C 226.210 233.247,225.179 233.617,224.421 233.757 C 223.662 233.897,222.582 234.316,222.021 234.689 C 221.459 235.062,220.595 235.316,220.100 235.255 C 219.605 235.193,219.200 235.346,219.200 235.595 C 219.200 235.844,219.025 235.939,218.811 235.807 C 218.598 235.675,217.980 235.857,217.440 236.211 C 216.899 236.565,215.823 236.914,215.049 236.986 C 214.274 237.058,213.136 237.470,212.520 237.901 C 211.904 238.333,211.155 238.600,210.855 238.495 C 210.555 238.389,209.508 238.704,208.527 239.193 C 207.547 239.683,206.194 240.122,205.521 240.168 C 204.848 240.215,204.094 240.511,203.847 240.826 C 203.327 241.489,202.573 241.736,201.300 241.662 C 200.805 241.633,200.400 241.798,200.400 242.028 C 200.400 242.259,200.231 242.343,200.024 242.215 C 199.817 242.087,199.065 242.337,198.352 242.771 C 197.640 243.204,196.893 243.458,196.694 243.334 C 196.494 243.211,195.671 243.385,194.865 243.721 C 192.919 244.533,191.925 244.887,191.200 245.027 C 190.230 245.215,186.699 246.408,185.400 246.987 C 183.529 247.822,182.627 248.133,182.288 248.059 C 182.116 248.022,181.484 248.246,180.883 248.557 C 180.281 248.868,178.919 249.253,177.854 249.413 C 176.790 249.572,176.123 249.829,176.372 249.983 C 176.698 250.184,176.654 250.588,176.215 251.431 C 174.946 253.863,175.339 255.552,181.342 273.465 C 193.193 308.829,192.858 307.894,193.813 308.260 C 194.218 308.416,194.400 309.089,194.400 310.429 C 194.400 311.962,194.569 312.462,195.200 312.800 C 195.810 313.126,196.000 313.638,196.000 314.952 C 196.000 316.168,196.236 316.889,196.800 317.400 C 197.364 317.911,197.600 318.632,197.600 319.848 C 197.600 321.162,197.790 321.674,198.400 322.000 C 199.036 322.340,199.200 322.838,199.200 324.427 C 199.200 325.805,199.380 326.494,199.781 326.648 C 200.111 326.775,200.477 327.676,200.630 328.735 C 200.777 329.761,201.124 330.870,201.400 331.200 C 201.676 331.530,202.023 332.640,202.171 333.667 C 202.318 334.694,202.678 335.732,202.969 335.974 C 203.260 336.216,203.615 337.293,203.758 338.367 C 203.912 339.532,204.256 340.413,204.609 340.548 C 205.010 340.702,205.200 341.357,205.200 342.587 C 205.200 343.867,205.435 344.635,206.000 345.200 C 206.452 345.652,206.800 346.533,206.800 347.226 C 206.800 348.872,207.456 350.000,208.414 350.000 C 208.846 350.000,209.203 350.225,209.206 350.500 C 209.210 350.833,209.342 350.800,209.600 350.400 C 209.886 349.957,209.989 349.938,209.994 350.329 C 209.997 350.619,209.720 351.137,209.377 351.480 C 209.034 351.823,208.854 352.365,208.977 352.684 C 209.100 353.004,209.200 353.542,209.200 353.879 C 209.200 354.288,209.457 354.426,209.970 354.292 C 210.542 354.142,210.679 354.250,210.502 354.711 C 210.354 355.096,210.428 355.230,210.698 355.063 C 210.936 354.916,211.223 355.021,211.334 355.298 C 211.446 355.574,211.551 355.125,211.568 354.300 C 211.586 353.475,211.409 352.800,211.176 352.800 C 210.943 352.800,210.844 352.653,210.955 352.473 C 211.066 352.293,210.902 351.408,210.591 350.505 C 210.280 349.602,209.954 348.264,209.867 347.532 C 209.684 345.999,208.581 342.356,207.768 340.600 C 207.463 339.940,207.023 338.636,206.791 337.702 C 206.560 336.768,206.139 335.787,205.856 335.523 C 205.573 335.259,205.420 334.628,205.517 334.121 C 205.620 333.582,205.498 333.200,205.223 333.200 C 204.964 333.200,204.856 333.033,204.981 332.830 C 205.247 332.401,204.416 330.400,203.973 330.400 C 203.809 330.400,203.768 330.044,203.882 329.608 C 203.996 329.172,203.737 328.137,203.306 327.308 C 202.875 326.479,202.392 325.099,202.232 324.242 C 202.072 323.384,201.641 322.224,201.274 321.663 C 200.906 321.103,200.662 320.310,200.731 319.903 C 200.800 319.496,200.467 318.501,199.990 317.693 C 199.514 316.886,199.071 315.659,199.007 314.967 C 198.942 314.275,198.588 313.249,198.220 312.687 C 197.852 312.125,197.472 310.862,197.376 309.881 C 197.182 307.902,197.354 307.760,201.112 306.800 C 202.054 306.559,202.719 306.193,202.591 305.986 C 202.463 305.779,202.638 305.716,202.979 305.847 C 203.321 305.978,203.600 305.911,203.600 305.698 C 203.600 305.485,204.050 305.397,204.600 305.502 C 205.208 305.618,205.600 305.509,205.600 305.223 C 205.600 304.964,205.780 304.864,205.999 304.999 C 206.219 305.135,206.894 304.977,207.499 304.647 C 208.105 304.318,209.243 303.945,210.030 303.819 C 210.816 303.693,211.806 303.272,212.230 302.883 C 212.653 302.495,213.307 302.239,213.683 302.315 C 214.059 302.390,215.229 302.060,216.283 301.580 C 217.337 301.100,218.678 300.661,219.262 300.603 C 219.846 300.546,220.741 300.207,221.251 299.850 C 221.761 299.492,222.594 299.200,223.102 299.200 C 223.611 299.200,224.876 298.782,225.913 298.272 C 226.951 297.761,228.115 297.414,228.500 297.501 C 228.885 297.588,229.200 297.455,229.200 297.206 C 229.200 296.957,229.369 296.857,229.576 296.985 C 229.783 297.113,230.535 296.863,231.248 296.429 C 231.960 295.996,232.693 295.734,232.875 295.847 C 233.431 296.190,234.830 295.572,234.544 295.109 C 234.397 294.871,234.439 294.773,234.638 294.891 C 234.837 295.009,235.450 294.920,236.000 294.693 C 236.550 294.465,237.315 294.318,237.700 294.365 C 238.085 294.412,238.400 294.279,238.400 294.070 C 238.400 293.860,238.625 293.700,238.900 293.714 C 239.892 293.763,242.000 293.092,242.000 292.726 C 242.000 292.521,242.168 292.456,242.373 292.583 C 242.577 292.710,243.342 292.545,244.073 292.217 C 244.803 291.889,246.170 291.428,247.112 291.192 C 248.054 290.956,248.731 290.611,248.616 290.426 C 248.502 290.242,248.632 290.110,248.904 290.135 C 249.867 290.222,252.801 289.525,252.631 289.250 C 252.536 289.097,252.761 288.948,253.129 288.920 C 254.215 288.836,257.171 288.022,257.914 287.601 C 258.842 287.076,263.138 285.591,264.500 285.324 C 265.105 285.206,265.600 284.939,265.600 284.731 C 265.600 284.523,265.775 284.461,265.988 284.593 C 266.202 284.725,266.967 284.526,267.688 284.152 C 270.485 282.699,272.818 284.366,272.803 287.806 C 272.802 288.249,273.160 289.284,273.600 290.104 C 274.040 290.925,274.400 292.005,274.400 292.504 C 274.400 293.004,274.760 294.084,275.200 294.904 C 275.640 295.725,276.000 296.715,276.000 297.104 C 276.000 297.494,276.360 298.484,276.800 299.304 C 277.240 300.125,277.601 301.203,277.602 301.699 C 277.604 302.194,277.857 303.083,278.165 303.673 C 278.473 304.263,278.851 305.343,279.004 306.073 C 279.158 306.803,279.525 307.940,279.819 308.600 C 280.113 309.260,280.549 310.557,280.787 311.483 C 281.026 312.409,281.397 313.274,281.611 313.407 C 281.825 313.539,282.000 314.139,282.000 314.739 C 282.000 315.340,282.340 316.497,282.755 317.311 C 283.170 318.125,283.631 319.439,283.779 320.231 C 284.020 321.515,285.026 323.925,286.020 325.600 C 286.215 325.930,286.737 326.980,287.180 327.933 C 288.158 330.041,294.903 336.841,297.062 337.896 C 298.715 338.705,299.315 339.008,301.814 340.294 C 302.702 340.751,304.322 341.249,305.414 341.401 C 306.506 341.552,308.288 341.929,309.373 342.238 C 311.886 342.954,314.914 342.954,317.427 342.238 C 318.512 341.929,320.294 341.552,321.386 341.401 C 322.478 341.249,324.008 340.803,324.786 340.408 C 325.564 340.014,327.274 339.176,328.586 338.546 C 331.432 337.179,338.287 330.667,339.477 328.200 C 340.312 326.469,340.607 325.882,341.930 323.324 C 342.406 322.402,342.967 320.512,343.175 319.124 C 343.383 317.736,343.744 315.971,343.977 315.203 C 344.210 314.434,344.400 312.903,344.400 311.800 C 344.400 310.697,344.210 309.166,343.977 308.397 C 343.744 307.629,343.379 305.836,343.166 304.414 C 342.953 302.991,342.543 301.461,342.255 301.014 C 341.967 300.566,341.508 299.302,341.236 298.205 C 340.964 297.108,340.598 296.028,340.423 295.805 C 340.248 295.582,339.883 294.454,339.612 293.299 C 339.341 292.143,338.958 291.097,338.760 290.975 C 338.562 290.853,338.400 290.351,338.400 289.861 C 338.400 289.370,338.040 288.263,337.600 287.400 C 337.160 286.537,336.800 285.457,336.800 285.000 C 336.800 284.543,336.460 283.503,336.045 282.689 C 335.630 281.875,335.165 280.541,335.012 279.725 C 334.859 278.909,334.479 277.877,334.167 277.431 C 333.855 276.986,333.600 276.250,333.600 275.796 C 333.600 275.341,333.240 274.263,332.800 273.400 C 332.360 272.537,332.000 271.457,332.000 271.000 C 332.000 270.543,331.665 269.513,331.257 268.711 C 330.848 267.909,330.413 266.656,330.291 265.927 C 330.168 265.197,329.960 264.329,329.828 263.997 C 329.573 263.354,332.723 261.590,334.116 261.597 C 334.510 261.598,335.538 261.240,336.400 260.800 C 337.262 260.360,338.347 260.000,338.810 260.000 C 339.274 260.000,340.037 259.794,340.508 259.542 C 340.978 259.291,342.181 258.851,343.182 258.566 C 344.182 258.280,346.260 257.571,347.800 256.989 C 349.340 256.407,351.410 255.744,352.400 255.515 C 353.390 255.285,354.555 254.851,354.989 254.549 C 355.423 254.247,356.146 254.000,356.595 254.000 C 357.044 254.000,358.039 253.666,358.806 253.259 C 359.573 252.851,360.911 252.386,361.780 252.226 C 362.648 252.065,363.723 251.679,364.169 251.367 C 364.614 251.055,365.231 250.800,365.540 250.800 C 369.159 250.800,380.548 241.289,381.803 237.219 C 381.969 236.679,382.352 235.991,382.652 235.691 C 382.953 235.390,383.308 234.662,383.442 234.072 C 383.576 233.482,384.026 232.268,384.443 231.374 C 385.568 228.957,385.577 214.909,384.454 212.707 C 384.044 211.902,383.596 210.680,383.458 209.990 C 383.320 209.300,382.845 208.275,382.404 207.714 C 381.962 207.152,381.600 206.517,381.600 206.303 C 381.600 203.418,369.090 193.200,365.559 193.200 C 365.140 193.200,364.125 192.840,363.304 192.400 C 361.620 191.497,351.883 191.206,350.374 192.014 C 349.840 192.300,349.600 192.300,349.600 192.014 C 349.600 191.786,349.330 191.600,349.000 191.600 C 348.661 191.600,348.400 191.958,348.400 192.424 " stroke="none" fill="#d6161a" fill-rule="evenodd"></path></g></svg>